<svg width="66" height="62" viewBox="0 0 66 62" fill="none" xmlns="http://www.w3.org/2000/svg">
<path d="M6.43564 35.6709C8.57161 38.0221 11.3165 39.74 14.3673 40.635C16.9266 41.3728 19.6057 41.6015 22.2518 41.3082C23.3072 44.3971 23.3717 47.7356 22.4365 50.8593L20.0669 58.8423C19.9781 59.1389 19.9515 59.4508 19.9886 59.7584C20.0258 60.066 20.1259 60.3628 20.2829 60.6303C20.4398 60.8979 20.6502 61.1305 20.9009 61.3137C21.1517 61.497 21.4374 61.6269 21.7404 61.6954C22.3132 61.8127 22.9089 61.7098 23.408 61.4073C23.9072 61.1048 24.2729 60.625 24.4318 60.0643L25.4314 56.6968L39.022 49.3554C40.4089 50.3979 41.9677 51.1906 43.6277 51.6975C45.9167 52.3834 48.3499 52.4258 50.6593 51.82C57.6403 49.9924 63.274 42.6897 65.6973 32.2662C65.8235 31.7271 65.7468 31.1603 65.4818 30.6733C65.2167 30.1863 64.7817 29.813 64.2594 29.6243C54.1658 25.9713 44.9522 26.6797 39.6168 31.5143C37.5222 33.4082 36.1041 35.932 35.5768 38.7039C35.5318 38.9174 35.5498 39.1395 35.6286 39.3432C35.7075 39.547 35.8437 39.7237 36.021 39.852C36.1982 39.9804 36.4089 40.0548 36.6274 40.0663C36.846 40.0779 37.0631 40.026 37.2526 39.917L44.0815 36.0236C44.6077 35.7566 45.218 35.7053 45.7824 35.8806C46.3467 36.056 46.8204 36.4442 47.1025 36.9625C47.3845 37.4807 47.4526 38.088 47.2923 38.6549C47.1319 39.2217 46.7557 39.7033 46.244 39.9969L27.1732 50.61C27.2196 50.394 27.2632 50.1772 27.3034 49.9623C28.0201 45.8061 27.3561 41.5279 25.4123 37.778L15.9701 19.2285C15.683 18.7016 15.6173 18.0827 15.7876 17.5082C15.9578 16.9338 16.35 16.4506 16.8779 16.1652C17.4058 15.8797 18.0262 15.8153 18.6025 15.9861C19.1788 16.1569 19.6638 16.5489 19.951 17.0759L29.0932 35.0532C29.1847 35.2334 29.3228 35.3859 29.4932 35.495C29.6636 35.604 29.8602 35.6656 30.0624 35.6733C30.2646 35.681 30.4651 35.6346 30.643 35.5388C30.8209 35.443 30.9698 35.3014 31.0742 35.1287C33.7659 30.779 34.5965 25.9004 33.3394 21.1266C30.8582 11.7068 20.8405 4.08513 6.54056 0.735866C5.99991 0.609047 5.43172 0.684567 4.94389 0.948088C4.45605 1.21161 4.08252 1.64478 3.89422 2.16536C-1.08031 15.9376 -0.134653 28.4599 6.43564 35.6709Z" fill="white" fill-opacity="0.15"/>
</svg>
