<svg width="110" height="114" viewBox="0 0 110 114" fill="none" xmlns="http://www.w3.org/2000/svg">
<path d="M105.077 61.5504C102.355 66.5037 98.3178 70.6135 93.4101 73.426C89.2874 75.7631 84.7468 77.269 80.0469 77.8578C79.5006 83.6397 80.7722 89.4428 83.6848 94.4602L91.0926 107.291C91.3691 107.767 91.5444 108.296 91.6075 108.843C91.6707 109.391 91.6204 109.946 91.4597 110.474C91.299 111.002 91.0314 111.492 90.6735 111.913C90.3156 112.334 89.875 112.677 89.3792 112.921C88.4367 113.361 87.3634 113.43 86.3744 113.113C85.3854 112.797 84.5538 112.118 84.0465 111.214L80.9216 105.801L54.3645 98.7303C52.3968 101.109 50.0282 103.126 47.366 104.691C43.6898 106.826 39.4972 107.908 35.2505 107.817C22.4143 107.547 9.64075 97.2458 1.1288 80.2146C0.687056 79.3343 0.584899 78.3218 0.84172 77.3693C1.09854 76.4168 1.69646 75.5907 2.52196 75.0478C18.4729 64.5449 34.7082 61.9529 45.9429 68.1072C50.3519 70.5163 53.8513 74.2954 55.9121 78.873C56.0785 79.2238 56.1393 79.6155 56.0874 80.0007C56.0354 80.3859 55.8729 80.7481 55.6193 81.0436C55.3658 81.3391 55.0322 81.5552 54.6588 81.6657C54.2854 81.7762 53.8883 81.7765 53.5153 81.6664L40.0864 77.7594C39.0653 77.5154 37.988 77.6795 37.0842 78.2168C36.1804 78.7541 35.5217 79.622 35.2484 80.6356C34.9751 81.6492 35.1089 82.7282 35.6212 83.6425C36.1336 84.5569 36.984 85.2342 37.9911 85.5302L75.3858 95.9914C75.2161 95.6369 75.0507 95.2799 74.8922 94.9248C71.9299 88.0305 71.3061 80.353 73.1156 73.0593L81.767 37.0518C82.0454 36.021 81.9026 34.9231 81.37 33.9996C80.8374 33.0761 79.9586 32.4027 78.9269 32.1275C77.8952 31.8524 76.7952 31.9979 75.8688 32.5322C74.9424 33.0665 74.2656 33.9458 73.9871 34.9766L65.6177 69.87C65.5342 70.2196 65.3584 70.5408 65.1087 70.8001C64.859 71.0594 64.5444 71.2473 64.1978 71.3445C63.8511 71.4416 63.485 71.4443 63.1374 71.3523C62.7899 71.2603 62.4736 71.077 62.2215 70.8214C55.7618 64.4106 52.3032 56.3135 52.5003 47.5329C52.8901 30.2062 67.0654 12.8679 90.42 1.1477C91.3029 0.704252 92.3173 0.599494 93.2705 0.853313C94.2238 1.10713 95.0496 1.70186 95.5911 2.52457C109.905 24.2928 113.457 46.3512 105.077 61.5504Z" fill="white" fill-opacity="0.15"/>
</svg>
