<svg width="205" height="135" viewBox="0 0 205 135" fill="none" xmlns="http://www.w3.org/2000/svg">
<path d="M107.61 132.03C98.174 129.468 89.6212 124.35 82.8961 117.241C77.2897 111.258 72.911 104.236 70.0095 96.5717C60.0649 98.0043 50.8236 102.502 43.5709 109.44L25.0078 127.115C24.319 127.773 23.5015 128.283 22.6064 128.612C21.7112 128.941 20.7574 129.082 19.8042 129.027C18.851 128.971 17.9188 128.72 17.0655 128.289C16.2121 127.859 15.4558 127.258 14.8437 126.523C13.7201 125.117 13.168 123.34 13.2982 121.548C13.4284 119.757 14.2312 118.082 15.5457 116.862L23.3763 109.406L24.4674 61.8729C19.6676 59.5314 15.312 56.3688 11.598 52.5284C6.51266 47.2149 2.98893 40.6046 1.41539 33.4264C-3.35098 11.7318 8.77669 -13.9367 33.9544 -35.1758C35.255 -36.2766 36.9161 -36.8602 38.6222 -36.8156C40.3282 -36.7711 41.9605 -36.1016 43.2091 -34.9342C67.357 -12.3827 78.3176 13.864 72.5375 35.2586C70.2793 43.6521 65.3476 51.0735 58.4881 56.4003C57.9658 56.8227 57.3319 57.0844 56.663 57.1536C55.9942 57.2229 55.3189 57.0968 54.7189 56.7907C54.119 56.4845 53.62 56.0114 53.2823 55.4285C52.9446 54.8455 52.7827 54.1778 52.8161 53.5059L53.925 29.3355C53.9202 27.5192 53.2062 25.7744 51.9351 24.4731C50.6641 23.1718 48.9367 22.417 47.1212 22.3696C45.3057 22.3222 43.5457 22.986 42.2165 24.2194C40.8873 25.4528 40.0941 27.1582 40.0059 28.9721L37.6213 96.1079C38.1484 95.6783 38.6815 95.255 39.2143 94.844C49.6027 87.0592 62.2594 82.8881 75.2599 82.9649L139.327 82.8703C141.174 82.9193 142.962 82.2327 144.298 80.9616C145.634 79.6904 146.409 77.9388 146.453 76.0921C146.496 74.2453 145.804 72.4548 144.528 71.1143C143.253 69.7738 141.5 68.9932 139.653 68.9441L77.574 69.0599C76.9521 69.0615 76.3406 68.8965 75.803 68.5821C75.2654 68.2676 74.8214 67.8151 74.5172 67.2717C74.2129 66.7283 74.0594 66.1137 74.0728 65.4919C74.0861 64.87 74.2658 64.2637 74.593 63.7358C82.7464 50.2664 94.9557 41.1578 109.801 37.9186C139.096 31.5282 174.015 48.3142 203.221 82.8204C204.326 84.1247 204.914 85.7879 204.875 87.4941C204.836 89.2003 204.172 90.8308 203.008 92.0759C172.224 124.997 136.576 139.941 107.61 132.03Z" fill="white" fill-opacity="0.15"/>
</svg>
