<svg width="44" height="44" viewBox="0 0 44 44" fill="none" xmlns="http://www.w3.org/2000/svg">
<circle cx="22" cy="22" r="22" fill="#00D282"/>
<path d="M31.1 14.5H29.0382L27.7382 13.25C26.9855 12.5263 25.6647 12 24.6 12H19.4C18.3353 12 17.0145 12.5263 16.2618 13.25L14.9618 14.5H12.9C10.7498 14.5 9 16.1825 9 18.25V28.25C9 30.3175 10.7498 32 12.9 32H31.1C33.2502 32 35 30.3175 35 28.25V18.25C35 16.1825 33.2502 14.5 31.1 14.5ZM22 27C20.7931 26.9998 19.6357 26.5387 18.7824 25.718C17.9291 24.8973 17.4498 23.7842 17.45 22.6237C17.4502 21.4633 17.9298 20.3504 18.7833 19.5299C19.6368 18.7094 20.7944 18.2486 22.0013 18.2487C23.2082 18.2489 24.3656 18.7101 25.2189 19.5308C26.0722 20.3515 26.5515 21.4645 26.5513 22.625C26.5511 23.7855 26.0715 24.8984 25.218 25.7189C24.3645 26.5393 23.2069 27.0002 22 27ZM29.8 21.1237C29.5781 21.1237 29.3583 21.0817 29.1533 21.0001C28.9482 20.9184 28.7619 20.7987 28.605 20.6478C28.4481 20.4969 28.3236 20.3178 28.2386 20.1206C28.1537 19.9235 28.11 19.7121 28.11 19.4987C28.11 19.2854 28.1537 19.074 28.2386 18.8769C28.3236 18.6797 28.4481 18.5006 28.605 18.3497C28.7619 18.1988 28.9482 18.0791 29.1533 17.9974C29.3583 17.9158 29.5781 17.8738 29.8 17.8738C30.2482 17.8738 30.6781 18.045 30.995 18.3497C31.3119 18.6544 31.49 19.0678 31.49 19.4987C31.49 19.9297 31.3119 20.3431 30.995 20.6478C30.6781 20.9525 30.2482 21.1237 29.8 21.1237Z" fill="white"/>
</svg>
