<svg width="22" height="22" viewBox="0 0 22 22" fill="none" xmlns="http://www.w3.org/2000/svg">
<circle cx="11" cy="11" r="11" fill="white"/>
<path fill-rule="evenodd" clip-rule="evenodd" d="M15.518 5.54634C15.168 5.19652 14.6935 5 14.1987 5C13.7039 5 13.2293 5.19652 12.8794 5.54634L12.4397 5.98672L15.5186 9.06563L15.9577 8.62587C16.131 8.4526 16.2685 8.24687 16.3623 8.02046C16.4561 7.79404 16.5044 7.55137 16.5044 7.3063C16.5044 7.06122 16.4561 6.81855 16.3623 6.59213C16.2685 6.36572 16.131 6.16 15.9577 5.98672L15.518 5.54634ZM14.6384 9.94514L11.5595 6.86623L5.90553 12.5209C5.7818 12.6446 5.69537 12.8007 5.65611 12.9712L5.01607 15.7422C4.99222 15.8451 4.99496 15.9523 5.02402 16.0538C5.05308 16.1554 5.10751 16.2478 5.18218 16.3225C5.25685 16.3972 5.3493 16.4516 5.45083 16.4807C5.55235 16.5097 5.6596 16.5125 5.76247 16.4886L8.53411 15.8492C8.70442 15.8098 8.86024 15.7234 8.98382 15.5998L14.6384 9.94514Z" fill="#00D282"/>
</svg>