<svg width="150" height="98" viewBox="0 0 150 98" fill="none" xmlns="http://www.w3.org/2000/svg">
<g clip-path="url(#clip0_497_1044)">
<path d="M138.734 0H107.542V11.3936H138.734V0Z" fill="#51535E"/>
<path d="M113.255 0H110.588V11.3936H113.255V0Z" fill="#3B3D44"/>
<path d="M118.765 0H116.098V11.3936H118.765V0Z" fill="#3B3D44"/>
<path d="M124.276 0H121.609V11.3936H124.276V0Z" fill="#3B3D44"/>
<path d="M129.799 0H127.132V11.3936H129.799V0Z" fill="#3B3D44"/>
<path d="M135.309 0H132.642V11.3936H135.309V0Z" fill="#3B3D44"/>
<path d="M149.97 41.133V15.3807C149.97 13.0717 148.099 11.2044 145.786 11.2044H97.608C95.2951 11.2044 93.4246 9.33698 93.4246 7.02798C93.4246 4.71898 91.5541 2.85159 89.2412 2.85159H10.5785C4.73948 2.83897 0 7.57053 0 13.3998V41.1204" fill="#FFFFFB"/>
<path d="M0 89.9627C0 94.404 2.85632 98 6.39513 98H143.575C147.101 98 149.97 94.404 149.97 89.9627V80.5879H0V89.9627Z" fill="#FFFFFB"/>
<path d="M149.97 33.6763H0V83.1242H149.97V33.6763Z" fill="#FFFFFB"/>
<path d="M149.97 38.168H0V78.6449H149.97V38.168Z" fill="#FFFFFB"/>
<path d="M142.526 18.6235H135.524C135.503 18.6235 135.486 18.6405 135.486 18.6614V23.2794C135.486 23.3003 135.503 23.3172 135.524 23.3172H142.526C142.546 23.3172 142.563 23.3003 142.563 23.2794V18.6614C142.563 18.6405 142.546 18.6235 142.526 18.6235Z" fill="#363635"/>
<path d="M131.163 18.6235H99.1243C99.1034 18.6235 99.0864 18.6405 99.0864 18.6614V23.2794C99.0864 23.3003 99.1034 23.3172 99.1243 23.3172H131.163C131.184 23.3172 131.201 23.3003 131.201 23.2794V18.6614C131.201 18.6405 131.184 18.6235 131.163 18.6235Z" fill="#F3F3F1"/>
<path d="M76.6405 25.8784C75.0986 25.8784 73.582 26.0298 72.0906 26.2317L72.6341 30.0548C73.9485 29.8655 75.2756 29.7394 76.6405 29.7394C92.3756 29.7394 105.128 42.4704 105.128 58.1792C105.128 73.8879 92.3756 86.619 76.6405 86.619C60.9055 86.619 48.1531 73.8879 48.1531 58.1792C48.1531 50.432 51.2622 43.4167 56.305 38.2814L53.5498 35.5813C47.8371 41.4105 44.2983 49.3722 44.2983 58.1792C44.2983 76.0203 58.7822 90.4799 76.6532 90.4799C94.5242 90.4799 109.008 76.0203 109.008 58.1792C109.008 40.3381 94.5242 25.8784 76.6532 25.8784H76.6405Z" fill="#363635"/>
<path d="M76.6407 39.9595C86.7263 39.9595 94.8909 48.123 94.8909 58.1791C94.8909 68.2353 86.7137 76.3988 76.6407 76.3988C66.5678 76.3988 58.3906 68.2353 58.3906 58.1791C58.3906 53.2205 60.3875 48.716 63.6103 45.4355L56.3052 38.294C51.2751 43.4293 48.1533 50.4446 48.1533 58.1918C48.1533 73.9005 60.9057 86.6316 76.6407 86.6316C92.3758 86.6316 105.128 73.9005 105.128 58.1918C105.128 42.483 92.3758 29.752 76.6407 29.752C75.2758 29.752 73.9487 29.8781 72.6343 30.0674L74.0751 40.174C74.9092 40.0604 75.7687 39.9721 76.6407 39.9721V39.9595Z" fill="#0C0D0D"/>
<path d="M76.6408 76.3988C86.7264 76.3988 94.8909 68.2353 94.8909 58.1791C94.8909 48.123 86.7137 39.9595 76.6408 39.9595C75.7687 39.9595 74.9219 40.0478 74.0751 40.1614L74.9725 46.4827C75.5159 46.407 76.072 46.3565 76.6408 46.3565C83.1876 46.3565 88.4958 51.6559 88.4958 58.1917C88.4958 64.7276 83.1876 70.0269 76.6408 70.0269C70.094 70.0269 64.7858 64.7276 64.7858 58.1917C64.7858 54.9617 66.0749 52.047 68.1729 49.9147L63.6104 45.4481C60.3875 48.7286 58.3906 53.2331 58.3906 58.1917C58.3906 68.2605 66.5678 76.4114 76.6408 76.4114V76.3988Z" fill="#363635"/>
<path d="M68.1728 49.9019C66.0748 52.0342 64.7856 54.9615 64.7856 58.179C64.7856 64.7148 70.0939 70.0142 76.6407 70.0142C83.1875 70.0142 88.4957 64.7148 88.4957 58.179C88.4957 51.6431 83.1875 46.3438 76.6407 46.3438C76.0719 46.3438 75.5158 46.3942 74.9724 46.4699L76.6407 58.179L68.1728 49.9019Z" fill="#0C0D0D"/>
<path d="M72.634 30.055L72.0906 26.2319C64.8613 27.2539 58.403 30.6228 53.5371 35.5815L56.2923 38.2816C60.5768 33.916 66.2642 30.9383 72.634 30.0424V30.055Z" fill="#363635"/>
<path d="M56.2924 38.2944L63.5975 45.4359C66.3401 42.6348 69.9927 40.7296 74.0623 40.1618L72.6215 30.0552C66.2643 30.951 60.5643 33.9161 56.2798 38.2944H56.2924Z" fill="#0C0D0D"/>
<path d="M74.972 46.483L74.0746 40.1616C69.9924 40.7294 66.3524 42.6346 63.6099 45.4357L68.1724 49.9023C69.9544 48.0854 72.3179 46.8489 74.972 46.4704V46.483Z" fill="#363635"/>
<path d="M68.1729 49.9022L76.6407 58.1792L74.9724 46.4702C72.331 46.8487 69.9549 48.0726 68.1729 49.9022Z" fill="#0C0D0D"/>
<path d="M65.721 60.0844C69.5321 60.0844 72.6217 57.0001 72.6217 53.1953C72.6217 49.3905 69.5321 46.3062 65.721 46.3062C61.9099 46.3062 58.8203 49.3905 58.8203 53.1953C58.8203 57.0001 61.9099 60.0844 65.721 60.0844Z" fill="#51535E"/>
<path d="M91.1119 69.3838C91.1119 71.7432 89.1909 73.6611 86.8275 73.6611C84.464 73.6611 82.543 71.7432 82.543 69.3838C82.543 67.0243 84.464 65.1064 86.8275 65.1064C89.1909 65.1064 91.1119 67.0243 91.1119 69.3838Z" fill="#51535E"/>
<path d="M13.5991 47.8832C13.5991 49.208 12.5248 50.2805 11.1977 50.2805C9.87067 50.2805 8.79639 49.208 8.79639 47.8832C8.79639 46.5583 9.87067 45.4858 11.1977 45.4858C12.5248 45.4858 13.5991 46.5583 13.5991 47.8832Z" fill="#A4CAD8"/>
<path d="M25.5806 25.4873V16.062H8.69539V25.4873H25.5806Z" fill="#E4EFF0"/>
</g>
<defs>
<clipPath id="clip0_497_1044">
<rect width="149.97" height="98" fill="white"/>
</clipPath>
</defs>
</svg>
