<svg width="44" height="44" viewBox="0 0 44 44" fill="none" xmlns="http://www.w3.org/2000/svg">
<circle cx="22" cy="22" r="22" fill="#00D282"/>
<path d="M21.5 10.5C22.5006 10.5 23.3125 11.3119 23.3125 12.3125V19.6875H30.6875C31.6881 19.6875 32.5 20.4994 32.5 21.5C32.5 22.5006 31.6881 23.3125 30.6875 23.3125H23.3125V30.6875C23.3125 31.6881 22.5006 32.5 21.5 32.5C20.4994 32.5 19.6875 31.6881 19.6875 30.6875V23.3125H12.3125C11.3119 23.3125 10.5 22.5006 10.5 21.5C10.5 20.4994 11.3119 19.6875 12.3125 19.6875H19.6875V12.3125C19.6875 11.3119 20.4994 10.5 21.5 10.5Z" fill="white" stroke="white"/>
</svg>
