<svg width="18" height="20" viewBox="0 0 18 20" fill="none" xmlns="http://www.w3.org/2000/svg">
<path d="M5.55 19.9083C5.08333 19.9083 4.675 19.7667 4.325 19.4833C3.975 19.2 3.74167 18.8333 3.625 18.3833L2.5 13.9083H15.5L14.375 18.3833C14.2583 18.8333 14.025 19.2 13.675 19.4833C13.325 19.7667 12.9167 19.9083 12.45 19.9083H5.55ZM9 5.90833C9 4.40833 9.50833 3.10833 10.525 2.00833C11.5417 0.908333 12.8083 0.241667 14.325 0.00833331C14.4083 -0.00833336 14.4833 7.07805e-08 14.55 0.0333334C14.6167 0.0666667 14.6833 0.108333 14.75 0.158333C14.8167 0.208333 14.8627 0.270667 14.888 0.345333C14.9133 0.42 14.9173 0.499333 14.9 0.583333C14.7167 1.9 14.1793 3.04567 13.288 4.02033C12.3967 4.995 11.3007 5.591 10 5.80833V7.90833H17C17.2833 7.90833 17.521 8.00433 17.713 8.19633C17.905 8.38833 18.0007 8.62567 18 8.90833V10.9083C18 11.4583 17.8043 11.9293 17.413 12.3213C17.0217 12.7133 16.5507 12.909 16 12.9083H2C1.45 12.9083 0.979333 12.7127 0.588 12.3213C0.196667 11.93 0.000666667 11.459 0 10.9083V8.90833C0 8.625 0.0960001 8.38767 0.288 8.19633C0.48 8.005 0.717333 7.909 1 7.90833H8V5.80833C6.7 5.59167 5.60433 4.996 4.713 4.02133C3.82167 3.04667 3.284 1.90067 3.1 0.583333C3.08333 0.5 3.08767 0.421 3.113 0.346333C3.13833 0.271667 3.184 0.209 3.25 0.158333C3.316 0.107667 3.38267 0.0660001 3.45 0.0333334C3.51733 0.000666738 3.59233 -0.00766669 3.675 0.00833331C5.19167 0.241667 6.45833 0.908333 7.475 2.00833C8.49167 3.10833 9 4.40833 9 5.90833Z" fill="#00D282"/>
</svg>
